<?xml version="1.0" encoding="UTF-8" standalone="no"?>
<svg
   version="1.0"
   width="1600.000000pt"
   height="1600.000000pt"
   viewBox="0 0 1600.000000 1600.000000"
   preserveAspectRatio="xMidYMid meet"
   id="svg2"
   sodipodi:docname="logo-1.svg"
   inkscape:version="1.4.2 (ebf0e940d0, 2025-05-08)"
   xmlns:inkscape="http://www.inkscape.org/namespaces/inkscape"
   xmlns:sodipodi="http://sodipodi.sourceforge.net/DTD/sodipodi-0.dtd"
   xmlns="http://www.w3.org/2000/svg"
   xmlns:svg="http://www.w3.org/2000/svg">
  <defs
     id="defs2" />
  <sodipodi:namedview
     id="namedview2"
     pagecolor="#ffffff"
     bordercolor="#000000"
     borderopacity="0.25"
     inkscape:showpageshadow="2"
     inkscape:pageopacity="0.0"
     inkscape:pagecheckerboard="0"
     inkscape:deskcolor="#d1d1d1"
     inkscape:document-units="pt"
     inkscape:zoom="0.40265625"
     inkscape:cx="1065.4249"
     inkscape:cy="1066.6667"
     inkscape:window-width="1908"
     inkscape:window-height="1068"
     inkscape:window-x="1926"
     inkscape:window-y="6"
     inkscape:window-maximized="1"
     inkscape:current-layer="g2" />
  <g
     transform="translate(0.000000,1600.000000) scale(0.100000,-0.100000)"
     fill="#000000"
     stroke="none"
     id="g2">
    <path
       d="M13905 14874 c-82 -13 -258 -35 -390 -49 -132 -15 -269 -30 -305 -35 -36 -4 -173 -20 -305 -34 -132 -14 -249 -28 -260 -30 -11 -3 -144 -21 -295 -41 -940 -122 -1371 -201 -2005 -366 -337 -87 -907 -271 -1235 -399 -607 -235 -1032 -431 -1600 -735 -814 -436 -1523 -936 -2089 -1473 -307 -292 -575 -591 -810 -907 -257 -345 -382 -555 -642 -1080 -103 -209 -213 -423 -245 -475 -259 -429 -670 -840 -1214 -1212 -387 -265 -857 -538 -1510 -876 -224 -115 -438 -237 -468 -265 -47 -43 -47 -55 -4 -105 21 -26 100 -110 174 -187 74 -77 154 -162 179 -189 54 -60 414 -399 553 -520 226 -198 433 -357 676 -521 237 -159 366 -234 615 -360 311 -157 615 -274 920 -356 66 -17 127 -34 136 -36 25 -7 59 15 59 38 0 11 -11 46 -25 79 -20 47 -25 76 -25 143 0 348 307 569 820 593 271 13 673 -72 1080 -226 205 -78 300 -108 355 -112 l49 -3 27 54 c15 29 37 90 49 135 47 166 127 302 264 445 139 144 306 259 542 372 306 147 621 230 1199 315 135 20 833 30 1050 16 327 -22 684 -100 1045 -227 211 -74 271 -87 287 -62 14 22 3 368 -18 550 -44 396 -108 654 -219 882 -135 276 -308 486 -580 700 -41 33 -92 74 -113 92 -20 18 -44 33 -52 33 -16 0 -21 -35 -6 -44 4 -3 15 -29 24 -58 9 -29 52 -170 96 -313 75 -246 113 -377 195 -680 31 -114 96 -398 113 -494 7 -39 18 -39 -122 -3 -162 42 -373 81 -495 92 -69 6 -166 15 -217 20 -121 13 -698 13 -860 0 -274 -22 -365 -32 -562 -66 -473 -81 -931 -227 -1205 -384 -95 -55 -289 -205 -374 -290 -94 -94 -218 -253 -290 -372 -34 -57 -73 -116 -86 -132 l-23 -30 -59 26 c-56 25 -295 105 -379 127 -280 74 -413 91 -727 91 -358 0 -558 -36 -766 -136 -209 -102 -336 -228 -461 -457 -23 -42 -47 -77 -52 -77 -15 0 -277 125 -402 192 -146 79 -395 228 -477 288 -36 25 -110 78 -166 118 -98 69 -317 246 -486 393 -114 100 -402 383 -450 443 l-39 49 78 42 c185 98 587 321 703 390 474 281 757 472 1055 710 307 246 642 581 820 820 187 250 306 454 525 898 164 333 264 510 413 730 467 688 1112 1295 2012 1892 290 192 415 267 806 486 186 104 711 369 838 424 42 18 141 60 221 94 80 34 163 70 185 80 42 19 216 88 430 170 152 58 448 160 555 191 41 12 116 34 165 50 141 45 364 105 565 153 441 106 642 148 1115 231 110 19 279 49 375 65 96 17 252 42 345 56 94 13 185 27 203 31 21 4 32 3 32 -5 0 -6 -4 -11 -9 -11 -11 0 -288 -186 -396 -265 -111 -82 -322 -260 -424 -359 -183 -178 -464 -510 -602 -711 -144 -210 -286 -456 -274 -475 3 -4 33 -10 67 -14 139 -16 513 -88 668 -130 429 -115 827 -296 1236 -563 384 -250 762 -597 1065 -978 159 -199 351 -488 427 -640 83 -169 186 -421 176 -436 -2 -4 -55 24 -116 62 -289 176 -432 261 -537 319 -528 290 -1123 486 -1656 545 -284 32 -505 29 -493 -6 2 -5 73 -80 159 -167 359 -363 630 -743 867 -1217 154 -307 249 -546 351 -880 89 -292 163 -650 201 -965 17 -145 24 -698 11 -898 -16 -249 -69 -603 -131 -872 -29 -128 -194 -654 -212 -674 -14 -17 -36 26 -58 114 -11 47 -38 141 -60 210 -21 69 -58 190 -81 270 -54 186 -132 380 -218 545 -110 213 -229 381 -252 358 -6 -6 -14 -68 -20 -139 -9 -126 -16 -171 -59 -399 -145 -774 -608 -1582 -1310 -2285 -534 -535 -1074 -928 -1727 -1254 -95 -47 -174 -86 -177 -86 -2 0 -42 -17 -88 -39 -175 -81 -376 -163 -533 -218 -526 -182 -1069 -328 -1405 -378 -96 -14 -188 -28 -203 -31 -23 -5 -28 -3 -25 9 1 9 66 80 143 159 294 301 449 493 657 813 144 222 208 342 322 601 194 443 251 764 198 1109 -73 461 -312 743 -775 910 -105 37 -119 33 -74 -22 94 -115 209 -312 267 -456 86 -215 120 -509 86 -727 -98 -621 -416 -1207 -984 -1813 -163 -174 -452 -456 -601 -587 -41 -36 -163 -144 -271 -240 -109 -96 -225 -199 -258 -227 -70 -61 -81 -83 -57 -120 l17 -26 287 6 c157 3 327 10 376 16 50 5 153 15 230 21 201 16 704 91 870 129 44 10 103 22 130 26 28 4 133 27 235 51 1243 297 2222 758 3109 1462 288 229 738 669 983 962 279 334 497 667 738 1128 18 34 37 62 42 62 31 0 92 -320 122 -640 20 -205 46 -592 46 -676 0 -72 15 -94 54 -76 35 15 135 145 288 374 164 245 246 386 383 663 248 504 368 919 471 1634 34 234 43 386 44 687 0 281 -10 437 -46 699 -118 868 -346 1540 -800 2366 -66 119 -78 157 -46 144 65 -25 238 -106 422 -197 385 -192 792 -439 1060 -644 268 -205 624 -525 804 -722 162 -178 186 -194 186 -124 0 90 -83 514 -155 788 -70 265 -218 680 -346 969 -136 308 -365 696 -557 945 -313 405 -740 802 -1167 1087 -378 251 -729 422 -1199 584 -224 77 -266 97 -266 126 0 49 526 588 780 799 254 211 791 623 1289 989 112 83 217 162 233 177 34 32 36 67 5 96 -30 28 -73 27 -272 -4z"
       id="path1"
       style="fill:#fafafa;fill-opacity:1" />
    <path
       d="M8735 10853 c-31 -5 -187 -35 -391 -77 -176 -37 -511 -125 -709 -187 -33 -11 -97 -31 -143 -44 -46 -14 -111 -37 -145 -51 -34 -15 -91 -37 -127 -49 -81 -29 -193 -76 -288 -121 -40 -18 -74 -34 -76 -34 -13 0 -352 -196 -444 -256 -398 -261 -680 -525 -1009 -944 -226 -288 -455 -673 -532 -891 -10 -30 -22 -62 -26 -71 -12 -29 11 -22 160 48 295 138 422 191 665 276 47 16 137 47 200 70 63 22 156 53 205 69 164 52 323 108 342 118 10 6 53 24 96 41 250 97 457 255 622 475 320 428 433 563 650 780 320 319 535 495 923 754 67 45 122 86 122 91 0 10 -37 11 -95 3z"
       id="path2"
       style="fill:#fe0101;fill-opacity:1" />
  </g>
</svg>
